<svg width="1661" height="348" viewBox="0 0 1661 348" fill="none" xmlns="http://www.w3.org/2000/svg">
<path d="M63.5743 347.672C45.0318 347.672 29.8004 341.932 17.8803 330.454C5.96009 318.533 7.46237e-06 302.861 7.46237e-06 283.435C7.46237e-06 264.451 5.96009 246.571 17.8803 229.794C29.8004 212.576 46.1355 197.124 66.8854 183.438C87.6353 169.752 111.255 158.715 137.744 150.327C143.484 148.561 146.353 144.808 146.353 139.069V78.8056C146.353 57.6142 143.042 42.6036 136.42 33.7738C129.797 24.5026 120.747 19.867 109.268 19.867C98.2311 19.867 88.0768 24.9441 78.8056 35.0983C69.9758 44.811 63.5743 61.3668 59.6009 84.7657C57.3934 98.8933 52.5371 109.268 45.0318 115.891C37.968 122.071 30.6834 125.162 23.1781 125.162C10.8165 125.162 4.63563 118.981 4.63563 106.619C4.63563 93.8162 8.16753 81.2338 15.2313 68.8721C22.7366 56.069 32.4494 44.5903 44.3695 34.4361C56.2897 23.8403 69.3136 15.4521 83.4412 9.27125C97.5688 3.09042 111.696 4.16195e-06 125.824 4.16195e-06C169.531 4.16195e-06 191.385 25.3856 191.385 76.1567V278.8C191.385 297.342 196.021 306.613 205.292 306.613C211.031 306.613 216.329 302.861 221.185 295.355C226.042 287.409 228.47 274.164 228.47 255.621C228.47 248.558 231.34 245.026 237.079 245.026C242.377 245.026 245.026 248.778 245.026 256.284C245.026 288.512 239.286 311.911 227.808 326.48C216.771 340.608 204.188 347.672 190.061 347.672C179.465 347.672 171.077 343.478 164.896 335.089C158.715 326.26 154.521 315.885 152.313 303.964C151.872 299.55 149.885 297.342 146.353 297.342C143.263 296.901 140.172 298.887 137.082 303.302C126.486 317.871 115.67 328.908 104.633 336.414C93.5954 343.919 79.9093 347.672 63.5743 347.672ZM81.4545 317.209C92.9332 317.209 103.529 313.236 113.242 305.289C122.954 296.901 130.901 285.863 137.082 272.177C143.263 258.491 146.353 243.039 146.353 225.821V177.478C146.353 169.09 141.718 166.662 132.446 170.194C105.516 179.906 84.5449 193.372 69.5343 210.59C54.9652 227.366 47.6807 247.675 47.6807 271.515C47.6807 301.978 58.9386 317.209 81.4545 317.209ZM268.478 341.712C261.856 341.712 258.545 339.283 258.545 334.427C258.545 330.454 261.414 327.805 267.154 326.48L275.1 325.156C284.372 323.39 290.332 320.741 292.981 317.209C296.071 313.236 297.616 306.613 297.616 297.342V74.8322C297.616 66.8854 296.292 61.5876 293.643 58.9386C291.435 55.8482 287.241 53.8615 281.06 52.9786L267.154 50.9919C261.414 50.5504 258.545 48.1222 258.545 43.7073C258.545 40.1754 262.076 37.7472 269.14 36.4228C282.826 34.2153 293.201 30.6834 300.265 25.827C307.77 20.9707 315.497 15.0106 323.443 7.9468C327.417 3.97341 330.728 1.98671 333.377 1.98671C337.35 1.98671 339.337 4.63563 339.337 9.93347V39.7339C339.337 42.8243 340.661 45.2525 343.31 47.0185C345.959 48.3429 348.829 47.4599 351.919 44.3695C370.02 27.1515 385.693 15.4521 398.938 9.27125C412.624 3.09042 426.31 4.16195e-06 439.996 4.16195e-06C452.799 4.16195e-06 464.057 3.53191 473.77 10.5957C483.924 17.218 491.429 27.3723 496.286 41.0584C497.61 44.5903 499.818 46.7977 502.908 47.6807C506.44 48.1222 509.751 46.7977 512.842 43.7073C530.943 26.9308 546.615 15.4521 559.86 9.27125C573.105 3.09042 586.57 4.16195e-06 600.256 4.16195e-06C618.799 4.16195e-06 633.809 7.06381 645.288 21.1914C657.208 34.8776 663.168 55.186 663.168 82.1167V297.342C663.168 306.613 664.493 313.236 667.142 317.209C670.232 320.741 676.413 323.169 685.684 324.494L700.253 326.48C705.11 327.363 707.538 330.012 707.538 334.427C707.538 339.283 704.889 341.712 699.591 341.712H586.349C580.168 341.712 577.078 339.283 577.078 334.427C577.078 330.012 579.506 327.363 584.363 326.48L593.634 325.156C603.788 323.831 610.41 321.182 613.501 317.209C616.591 313.236 618.136 306.613 618.136 297.342V89.4013C618.136 67.7684 614.163 52.5371 606.216 43.7073C598.711 34.8775 588.336 30.4627 575.091 30.4627C561.847 30.4627 549.706 34.6568 538.669 43.0451C528.073 50.9919 519.464 61.8083 512.842 75.4944C506.219 88.7391 502.908 103.529 502.908 119.864V297.342C502.908 306.613 504.453 313.236 507.544 317.209C510.634 320.741 517.036 323.169 526.748 324.494L541.318 326.48C546.174 327.363 548.602 330.012 548.602 334.427C548.602 339.283 545.953 341.712 540.655 341.712H428.076C421.895 341.712 418.805 339.283 418.805 334.427C418.805 330.012 421.233 327.363 426.089 326.48L435.36 325.156C444.632 323.831 450.592 321.182 453.241 317.209C456.331 313.236 457.876 306.613 457.876 297.342V89.4013C457.876 67.7684 453.903 52.5371 445.956 43.7073C438.451 34.8775 428.076 30.4627 414.831 30.4627C401.587 30.4627 389.446 34.6568 378.409 43.0451C367.813 50.9919 359.204 61.8083 352.582 75.4944C345.959 88.7391 342.648 103.529 342.648 119.864V297.342C342.648 306.613 343.972 313.236 346.621 317.209C349.712 321.182 355.893 323.611 365.164 324.494L383.044 326.48C387.901 327.363 390.329 329.791 390.329 333.765C390.329 339.063 387.018 341.712 380.395 341.712H268.478ZM794.357 347.672C775.815 347.672 760.584 341.932 748.663 330.454C736.743 318.533 730.783 302.861 730.783 283.435C730.783 264.451 736.743 246.571 748.663 229.794C760.584 212.576 776.919 197.124 797.668 183.438C818.418 169.752 842.038 158.715 868.527 150.327C874.267 148.561 877.136 144.808 877.136 139.069V78.8056C877.136 57.6142 873.825 42.6036 867.203 33.7738C860.581 24.5026 851.53 19.867 840.051 19.867C829.014 19.867 818.86 24.9441 809.589 35.0983C800.759 44.811 794.357 61.3668 790.384 84.7657C788.177 98.8933 783.32 109.268 775.815 115.891C768.751 122.071 761.466 125.162 753.961 125.162C741.6 125.162 735.419 118.981 735.419 106.619C735.419 93.8162 738.951 81.2338 746.014 68.8721C753.52 56.069 763.232 44.5903 775.153 34.4361C787.073 23.8403 800.097 15.4521 814.224 9.27125C828.352 3.09042 842.48 4.16195e-06 856.607 4.16195e-06C900.314 4.16195e-06 922.168 25.3856 922.168 76.1567V278.8C922.168 297.342 926.804 306.613 936.075 306.613C941.814 306.613 947.112 302.861 951.968 295.355C956.825 287.409 959.253 274.164 959.253 255.621C959.253 248.558 962.123 245.026 967.862 245.026C973.16 245.026 975.809 248.778 975.809 256.284C975.809 288.512 970.07 311.911 958.591 326.48C947.554 340.608 934.971 347.672 920.844 347.672C910.248 347.672 901.86 343.478 895.679 335.089C889.498 326.26 885.304 315.885 883.096 303.964C882.655 299.55 880.668 297.342 877.136 297.342C874.046 296.901 870.955 298.887 867.865 303.302C857.269 317.871 846.453 328.908 835.416 336.414C824.379 343.919 810.692 347.672 794.357 347.672ZM812.238 317.209C823.716 317.209 834.312 313.236 844.025 305.289C853.737 296.901 861.684 285.863 867.865 272.177C874.046 258.491 877.136 243.039 877.136 225.821V177.478C877.136 169.09 872.501 166.662 863.229 170.194C836.299 179.906 815.328 193.372 800.317 210.59C785.748 227.366 778.464 247.675 778.464 271.515C778.464 301.978 789.722 317.209 812.238 317.209ZM999.261 341.712C992.639 341.712 989.328 339.283 989.328 334.427C989.328 330.454 992.197 327.805 997.937 326.48L1005.88 325.156C1015.15 323.39 1021.11 320.741 1023.76 317.209C1026.85 313.236 1028.4 306.613 1028.4 297.342V74.8322C1028.4 66.8854 1027.07 61.5876 1024.43 58.9386C1022.22 55.8482 1018.02 53.8615 1011.84 52.9786L997.937 50.9919C992.197 50.5504 989.328 48.1222 989.328 43.7073C989.328 40.1754 992.86 37.7472 999.923 36.4228C1013.61 34.2153 1023.98 30.6834 1031.05 25.827C1038.55 20.9707 1046.28 15.0106 1054.23 7.9468C1058.2 3.97341 1061.51 1.98671 1064.16 1.98671C1068.13 1.98671 1070.12 4.63563 1070.12 9.93347V39.7339C1070.12 43.7073 1071.44 46.3562 1074.09 47.6807C1077.18 48.5637 1080.49 47.2392 1084.03 43.7073C1101.69 26.9308 1117.14 15.4521 1130.38 9.27125C1144.07 3.09042 1158.42 4.16195e-06 1173.43 4.16195e-06C1193.3 4.16195e-06 1209.19 7.06381 1221.11 21.1914C1233.03 34.8776 1238.99 55.186 1238.99 82.1167V297.342C1238.99 306.613 1240.31 313.236 1242.96 317.209C1246.05 320.741 1252.23 323.169 1261.5 324.494L1276.07 326.48C1280.93 327.363 1283.36 330.012 1283.36 334.427C1283.36 339.283 1280.71 341.712 1275.41 341.712H1164.16C1157.98 341.712 1154.89 339.283 1154.89 334.427C1154.89 330.012 1157.31 327.363 1162.17 326.48L1171.44 325.156C1180.71 323.831 1186.67 321.182 1189.32 317.209C1192.41 313.236 1193.96 306.613 1193.96 297.342V89.4013C1193.96 67.7684 1189.98 52.5371 1182.04 43.7073C1174.09 34.8775 1162.83 30.4627 1148.26 30.4627C1134.14 30.4627 1121.33 34.6568 1109.85 43.0451C1098.82 50.9919 1089.99 61.8083 1083.36 75.4944C1076.74 88.7391 1073.43 103.529 1073.43 119.864V297.342C1073.43 306.613 1074.76 313.236 1077.4 317.209C1080.49 321.182 1086.68 323.611 1095.95 324.494L1113.83 326.48C1118.68 327.363 1121.11 329.791 1121.11 333.765C1121.11 339.063 1117.8 341.712 1111.18 341.712H999.261ZM1369.93 347.672C1351.39 347.672 1336.16 341.932 1324.24 330.454C1312.32 318.533 1306.36 302.861 1306.36 283.435C1306.36 264.451 1312.32 246.571 1324.24 229.794C1336.16 212.576 1352.49 197.124 1373.24 183.438C1393.99 169.752 1417.61 158.715 1444.1 150.327C1449.84 148.561 1452.71 144.808 1452.71 139.069V78.8056C1452.71 57.6142 1449.4 42.6036 1442.78 33.7738C1436.15 24.5026 1427.1 19.867 1415.62 19.867C1404.59 19.867 1394.43 24.9441 1385.16 35.0983C1376.33 44.811 1369.93 61.3668 1365.96 84.7657C1363.75 98.8933 1358.89 109.268 1351.39 115.891C1344.32 122.071 1337.04 125.162 1329.53 125.162C1317.17 125.162 1310.99 118.981 1310.99 106.619C1310.99 93.8162 1314.52 81.2338 1321.59 68.8721C1329.09 56.069 1338.8 44.5903 1350.73 34.4361C1362.65 23.8403 1375.67 15.4521 1389.8 9.27125C1403.92 3.09042 1418.05 4.16195e-06 1432.18 4.16195e-06C1475.89 4.16195e-06 1497.74 25.3856 1497.74 76.1567V278.8C1497.74 297.342 1502.38 306.613 1511.65 306.613C1517.39 306.613 1522.68 302.861 1527.54 295.355C1532.4 287.409 1534.83 274.164 1534.83 255.621C1534.83 248.558 1537.7 245.026 1543.43 245.026C1548.73 245.026 1551.38 248.778 1551.38 256.284C1551.38 288.512 1545.64 311.911 1534.16 326.48C1523.13 340.608 1510.54 347.672 1496.42 347.672C1485.82 347.672 1477.43 343.478 1471.25 335.089C1465.07 326.26 1460.88 315.885 1458.67 303.964C1458.23 299.55 1456.24 297.342 1452.71 297.342C1449.62 296.901 1446.53 298.887 1443.44 303.302C1432.84 317.871 1422.03 328.908 1410.99 336.414C1399.95 343.919 1386.26 347.672 1369.93 347.672ZM1387.81 317.209C1399.29 317.209 1409.88 313.236 1419.6 305.289C1429.31 296.901 1437.26 285.863 1443.44 272.177C1449.62 258.491 1452.71 243.039 1452.71 225.821V177.478C1452.71 169.09 1448.07 166.662 1438.8 170.194C1411.87 179.906 1390.9 193.372 1375.89 210.59C1361.32 227.366 1354.04 247.675 1354.04 271.515C1354.04 301.978 1365.29 317.209 1387.81 317.209Z" fill="#E8EDE4"/>
<path d="M1625.83 347.672C1616.11 347.672 1607.72 344.581 1600.66 338.4C1594.04 331.778 1590.73 323.169 1590.73 312.573C1590.73 302.419 1594.04 294.252 1600.66 288.071C1607.72 281.449 1616.11 278.137 1625.83 278.137C1634.66 278.137 1642.6 281.449 1649.67 288.071C1656.73 294.252 1660.26 302.419 1660.26 312.573C1660.26 323.169 1656.73 331.778 1649.67 338.4C1642.6 344.581 1634.66 347.672 1625.83 347.672Z" fill="#C4E844"/>
</svg>
