<svg width="836" height="821" viewBox="0 0 836 821" fill="none" xmlns="http://www.w3.org/2000/svg">
<path d="M150.01 820.368C106.257 820.368 70.3174 806.826 42.1905 779.74C14.0636 751.613 9.89588e-05 714.632 9.89588e-05 668.795C9.89588e-05 624.001 14.0636 581.81 42.1905 542.224C70.3174 501.597 108.862 465.136 157.823 432.842C206.785 400.548 262.518 374.505 325.022 354.712C338.565 350.545 345.336 341.69 345.336 328.147V185.95C345.336 135.947 337.523 100.528 321.897 79.6929C306.271 57.8164 284.915 46.8782 257.83 46.8782C231.787 46.8782 207.827 58.8582 185.95 82.8181C165.115 105.736 150.01 144.802 140.635 200.014C135.426 233.349 123.967 257.83 106.257 273.456C89.5895 288.04 72.4008 295.333 54.6913 295.333C25.5227 295.333 10.9383 280.748 10.9383 251.58C10.9383 221.369 19.2722 191.68 35.94 162.511C53.6496 132.301 76.5678 105.216 104.695 81.2556C132.822 56.2538 163.553 36.4608 196.888 21.8765C230.224 7.29219 263.56 2.59928e-05 296.895 2.59928e-05C400.027 2.59928e-05 451.593 59.8999 451.593 179.7V657.857C451.593 701.61 462.531 723.487 484.408 723.487C497.951 723.487 510.451 714.632 521.91 696.922C533.37 678.171 539.099 646.919 539.099 603.166C539.099 586.498 545.87 578.164 559.413 578.164C571.914 578.164 578.164 587.019 578.164 604.729C578.164 680.775 564.622 735.987 537.537 770.365C511.493 803.7 481.804 820.368 448.468 820.368C423.466 820.368 403.673 810.472 389.089 790.679C374.505 769.844 364.608 745.363 359.399 717.236C358.358 706.819 353.67 701.61 345.336 701.61C338.044 700.568 330.752 705.256 323.46 715.674C298.458 750.051 272.935 776.094 246.892 793.804C220.848 811.513 188.555 820.368 150.01 820.368ZM192.201 748.488C219.286 748.488 244.287 739.113 267.206 720.361C290.124 700.568 308.875 674.525 323.46 642.231C338.044 609.937 345.336 573.476 345.336 532.849V418.778C345.336 398.985 334.398 393.256 312.521 401.59C248.975 424.508 199.493 456.281 164.074 496.909C129.696 536.495 112.508 584.415 112.508 640.668C112.508 712.548 139.072 748.488 192.201 748.488Z" fill="#0D1F0D"/>
<path d="M753.823 820.368C730.905 820.368 711.112 813.076 694.444 798.492C678.818 782.866 671.005 762.552 671.005 737.55C671.005 713.59 678.818 694.318 694.444 679.734C711.112 664.108 730.905 656.295 753.823 656.295C774.658 656.295 793.409 664.108 810.077 679.734C826.745 694.318 835.079 713.59 835.079 737.55C835.079 762.552 826.745 782.866 810.077 798.492C793.409 813.076 774.658 820.368 753.823 820.368Z" fill="#C4E844"/>
</svg>
