<svg xmlns:xlink="http://www.w3.org/1999/xlink" xmlns="http://www.w3.org/2000/svg" width="80" viewBox="0 0 75 30" fill="none" class="navbar_logo" height="32" ><g clip-path="url(#clip0_2609_135)" fill="none"><path d="M53.3672 6.39551L53.4561 8.0166H54.3604C55.392 6.80843 56.8271 6.44709 58.7373 6.40234H63.5996V16.8525C63.5996 18.0407 63.7014 18.9129 63.9062 19.4648C64.1112 20.0168 64.5101 20.3935 65.1016 20.5957C65.6947 20.7979 66.6577 20.8984 67.9277 20.8984C69.1974 20.8984 70.1397 20.7881 70.7529 20.5645C71.3661 20.3424 71.782 19.9378 71.9971 19.3545C72.2121 18.7694 72.3193 17.8835 72.3193 16.6934V6.40234L72.3174 6.39551H74.999L74.9971 23.5459V23.6143C74.955 24.4279 74.8156 25.0591 74.6123 25.6475C74.3536 26.3916 73.9676 27.0399 73.4502 27.5918C72.8689 28.2299 72.0503 28.7121 70.9951 29.042C69.9383 29.3718 68.7536 29.5361 67.4414 29.5361C65.0306 29.5361 63.2164 29.0783 62 28.165C60.782 27.2502 60.1957 26.0307 60.2393 24.501H62.8867C62.9304 25.2019 63.0867 25.7422 63.3555 26.125C63.6243 26.5079 64.0882 26.7834 64.7451 26.9541C65.4021 27.1248 66.3233 27.209 67.5078 27.209C68.8198 27.209 69.8164 27.1028 70.4951 26.8906C71.1737 26.6785 71.6456 26.3384 71.916 25.8711C72.1847 25.4037 72.3193 24.7244 72.3193 23.833V23.2627L72.3096 21.3643H71.373C70.8354 21.9378 70.1734 22.4309 69.3652 22.7607C68.5573 23.0904 67.6166 23.2539 66.54 23.2539C64.7742 23.2539 63.391 22.7817 62.3896 21.8369C61.3883 20.8922 60.8877 19.4735 60.8877 17.584V9.04785H57.9219C56.6719 9.04786 55.7412 9.15905 55.1279 9.38281C54.5148 9.60656 54.0829 9.99405 53.8359 10.5459C53.589 11.0995 53.4649 11.9382 53.4648 13.0635V22.8047H50.751V6.39551H53.3672ZM8.0752 5.9502C9.49637 5.95024 10.7783 6.2362 11.9189 6.80957L11.916 6.81152C13.0567 7.38498 13.9619 8.27187 14.6289 9.47168C15.2959 10.6717 15.6309 12.1657 15.6309 13.9492C15.6308 14.4812 15.597 15.0003 15.5332 15.5107H2.87305L2.84082 16.2744C2.84082 17.9303 3.23974 19.1151 4.03613 19.8262C4.83252 20.5388 6.14602 20.8935 7.97559 20.8936C9.52635 20.8936 10.662 20.6598 11.3828 20.1924C12.1053 19.725 12.5412 18.8848 12.6924 17.6748H15.3398C15.2542 19.4169 14.5486 20.7817 13.2246 21.7695C11.9007 22.7573 10.173 23.251 8.04102 23.251C5.54286 23.2509 3.57889 22.5398 2.14746 21.1162C0.715962 19.6941 0 17.5472 0 14.6797C2.95797e-05 11.9831 0.7057 9.85332 2.11523 8.29199C3.52657 6.73061 5.51295 5.9502 8.0752 5.9502ZM20.0986 8.02051H21.0029C21.4767 7.40557 22.1608 6.90632 23.0547 6.52344C23.9479 6.14089 24.9751 5.95045 26.1367 5.9502C28.3103 5.95042 30.0272 6.69415 31.2871 8.18066C32.5472 9.6674 33.1777 11.7808 33.1777 14.5205C33.1777 16.4316 32.8701 18.0415 32.2568 19.3477C31.6436 20.6537 30.7986 21.6302 29.7217 22.2783C28.6447 22.9264 27.4177 23.249 26.04 23.249C24.8992 23.249 23.8925 23.2737 23.0205 22.8809C22.1487 22.4881 21.4643 21.9847 20.9688 21.3682H20.0654L20.001 22.8037H17.3857V0.5H20.0986V8.02051ZM48.8662 22.8037H46.25L46.2178 21.3691H45.2822C44.7447 21.9641 44.0661 22.425 43.248 22.7549C42.4299 23.0847 41.5039 23.249 40.4707 23.249C38.7469 23.249 37.3852 22.7768 36.3838 21.832C35.3826 20.8873 34.8819 19.47 34.8818 17.5791V6.39551H37.5957V16.8467C37.5957 18.0363 37.6984 18.9061 37.9033 19.458C38.1083 20.01 38.5017 20.3867 39.083 20.5889C39.6644 20.791 40.6106 20.8926 41.8604 20.8926C43.1101 20.8926 44.029 20.7813 44.6221 20.5576C45.2151 20.3355 45.6189 19.9327 45.834 19.3477C46.049 18.7643 46.1562 17.8774 46.1562 16.6875L46.1523 16.6855V6.39355H48.8662V22.8037ZM25.1377 8.4043C23.6088 8.4043 22.4994 8.54724 21.8105 8.83398C21.1204 9.12073 20.6588 9.68419 20.4219 10.5225C20.185 11.3628 20.0674 12.6956 20.0674 14.585C20.0674 16.4745 20.185 17.8343 20.4219 18.6631C20.6587 19.4915 21.122 20.0548 21.8105 20.3516C22.4994 20.6483 23.5869 20.7979 25.1377 20.7979C26.6885 20.7979 27.8027 20.6499 28.4814 20.3516C29.16 20.0549 29.6166 19.4916 29.8535 18.6631C30.0887 17.836 30.208 16.4762 30.208 14.585C30.208 12.694 30.0904 11.3345 29.8535 10.5059C29.6166 9.67747 29.16 9.1207 28.4814 8.83398C27.8027 8.54723 26.6666 8.4043 25.1377 8.4043ZM7.91504 8.40332C6.62309 8.40334 5.61142 8.56166 4.87891 8.87988C4.14645 9.19812 3.62886 9.71381 3.32812 10.4248C3.0257 11.1375 2.88636 12.0996 2.9082 13.3096H12.6934L12.6973 13.3105C12.7174 13.0984 12.7285 12.7803 12.7285 12.3545C12.7285 10.8677 12.3624 9.8362 11.6299 9.2627C10.8973 8.68936 9.65879 8.40332 7.91504 8.40332Z" fill="#231F20"></path></g><defs><clipPath id="clip0_2609_135"><rect width="75" height="30" fill="currentColor"></rect></clipPath></defs></svg>