<svg version="1.1" id="Layer_1" xmlns:x="ns_extend;" xmlns:i="ns_ai;" xmlns:graph="ns_graphs;" xmlns="http://www.w3.org/2000/svg" xmlns:xlink="http://www.w3.org/1999/xlink" x="0px" y="0px" viewBox="0 0 262 62" style="enable-background:new 0 0 262 62;" xml:space="preserve">
 <style type="text/css">
  .st0{fill:#3C1053;}
	.st1{fill:#BF5CFF;}
	.st2{fill:#8F52D1;}
	.st3{fill:url(#Path_9_);}
	.st4{fill:url(#Path_10_);}
	.st5{fill:url(#Path_11_);}
 </style>
 <metadata>
  <sfw xmlns="ns_sfw;">
   <slices>
   </slices>
   <sliceSourceBounds bottomLeftOrigin="true" height="62" width="262" x="1" y="0">
   </sliceSourceBounds>
  </sfw>
 </metadata>
 <g id="Symbols">
  <g id="Logo_x2F_Wh_x2F_NatWestGroup-Hor">
   <g id="NWG_Horizontal_RGB_NEG" transform="translate(1.000000, 0.000000)">
    <g id="Group" transform="translate(77.358001, 21.841302)">
     <path id="Path" class="st0" d="M124.7,9.6v9.9c-0.5,0.3-1,0.6-1.7,0.8c-0.6,0.2-1.3,0.4-1.9,0.6c-0.7,0.2-1.3,0.3-2,0.4
					c-0.7,0.1-1.3,0.1-1.9,0.1c-1.7,0-3.2-0.3-4.5-0.8c-1.3-0.6-2.4-1.3-3.4-2.3c-0.9-1-1.6-2.1-2.1-3.4c-0.5-1.3-0.7-2.6-0.7-4
					c0-1.5,0.3-2.9,0.8-4.2c0.5-1.3,1.2-2.4,2.1-3.3c0.9-0.9,2-1.7,3.3-2.2c1.3-0.5,2.7-0.8,4.2-0.8c1.8,0,3.4,0.2,4.5,0.7
					c1.2,0.5,2.1,1.1,2.9,1.9l-1.9,2.1c-0.8-0.8-1.7-1.3-2.6-1.7c-0.9-0.3-1.9-0.5-2.9-0.5c-1.1,0-2.2,0.2-3.1,0.6
					c-0.9,0.4-1.7,1-2.4,1.7c-0.7,0.7-1.2,1.6-1.5,2.5c-0.4,1-0.5,2-0.5,3.1s0.2,2.2,0.6,3.2s0.9,1.8,1.6,2.5
					c0.7,0.7,1.5,1.3,2.5,1.7c0.9,0.4,2,0.6,3.1,0.6c1,0,1.9-0.1,2.7-0.3c0.9-0.2,1.6-0.4,2.2-0.8v-5.6h-4.4V9.6L124.7,9.6
					L124.7,9.6z">
     </path>
     <path id="Path_1_" class="st0" d="M128.5,7.3h2.5v2.1h0.1c0.2-0.4,0.4-0.7,0.7-1c0.3-0.3,0.6-0.5,0.9-0.7
					c0.3-0.2,0.7-0.4,1.1-0.5c0.4-0.1,0.8-0.2,1.2-0.2s0.8,0.1,1.1,0.2l-0.1,2.7c-0.2-0.1-0.4-0.1-0.6-0.1c-0.2,0-0.4-0.1-0.6-0.1
					c-1.2,0-2.2,0.3-2.9,1s-1,1.8-1,3.3v6.7h-2.5L128.5,7.3L128.5,7.3z">
     </path>
     <path id="Shape" class="st0" d="M137.8,14.1c0-1,0.2-1.9,0.6-2.7s0.9-1.6,1.5-2.2c0.6-0.6,1.4-1.1,2.3-1.5
					c0.9-0.4,1.8-0.6,2.8-0.6s1.9,0.2,2.8,0.6c0.9,0.4,1.6,0.9,2.3,1.5c0.6,0.6,1.1,1.4,1.5,2.2s0.6,1.8,0.6,2.7s-0.2,1.9-0.6,2.8
					c-0.4,0.9-0.9,1.6-1.5,2.2c-0.6,0.6-1.4,1.1-2.3,1.5c-0.9,0.4-1.8,0.6-2.8,0.6s-1.9-0.2-2.8-0.6c-0.9-0.4-1.6-0.9-2.3-1.5
					c-0.6-0.6-1.1-1.4-1.5-2.2C138,16,137.8,15,137.8,14.1z M140.5,14.1c0,0.7,0.1,1.3,0.3,1.9s0.5,1.1,0.9,1.5
					c0.4,0.4,0.8,0.7,1.4,1c0.5,0.2,1.2,0.4,1.8,0.4c0.7,0,1.3-0.1,1.8-0.4c0.5-0.2,1-0.6,1.4-1c0.4-0.4,0.7-0.9,0.9-1.5
					c0.2-0.6,0.3-1.2,0.3-1.9s-0.1-1.3-0.3-1.9c-0.2-0.6-0.5-1.1-0.9-1.5c-0.4-0.4-0.8-0.7-1.4-1c-0.5-0.2-1.2-0.4-1.8-0.4
					c-0.7,0-1.3,0.1-1.8,0.4c-0.5,0.2-1,0.6-1.4,1s-0.7,0.9-0.9,1.5S140.5,13.4,140.5,14.1z">
     </path>
     <path id="Path_2_" class="st0" d="M166.4,20.8h-2.5v-2.1h-0.1c-0.3,0.7-0.9,1.3-1.7,1.7c-0.8,0.4-1.7,0.7-2.7,0.7
					c-0.7,0-1.3-0.1-1.9-0.3c-0.6-0.2-1.1-0.5-1.5-0.9c-0.4-0.4-0.8-0.9-1.1-1.6c-0.3-0.7-0.4-1.4-0.4-2.3V7.3h2.5v7.9
					c0,0.6,0.1,1.2,0.3,1.6c0.2,0.4,0.4,0.8,0.7,1.1c0.3,0.3,0.6,0.5,1,0.6c0.4,0.1,0.7,0.2,1.1,0.2c0.5,0,1-0.1,1.5-0.3
					c0.5-0.2,0.8-0.4,1.2-0.8c0.3-0.4,0.6-0.8,0.8-1.4c0.2-0.6,0.3-1.2,0.3-2V7.3h2.5L166.4,20.8L166.4,20.8z">
     </path>
     <path id="Shape_1_" class="st0" d="M169.6,7.3h2.5v1.9h0.1c0.5-0.7,1.2-1.3,2-1.7c0.9-0.4,1.7-0.6,2.6-0.6c1,0,2,0.2,2.8,0.5
					c0.8,0.4,1.6,0.9,2.1,1.5c0.6,0.6,1.1,1.4,1.4,2.3c0.3,0.9,0.5,1.8,0.5,2.8s-0.2,1.9-0.5,2.8c-0.3,0.9-0.8,1.6-1.4,2.2
					c-0.6,0.6-1.3,1.1-2.1,1.5c-0.8,0.4-1.8,0.5-2.8,0.5c-1,0-1.9-0.2-2.7-0.6c-0.8-0.4-1.5-1-2-1.7h-0.1v9.9h-2.5V7.3L169.6,7.3z
					 M176.5,9.4c-0.7,0-1.3,0.1-1.8,0.4c-0.5,0.2-1,0.6-1.4,1s-0.7,0.9-0.9,1.5s-0.3,1.2-0.3,1.9s0.1,1.3,0.3,1.9s0.5,1.1,0.9,1.5
					c0.4,0.4,0.8,0.7,1.4,1c0.5,0.2,1.2,0.4,1.8,0.4s1.3-0.1,1.8-0.4c0.5-0.2,1-0.6,1.4-1c0.4-0.4,0.7-0.9,0.9-1.5
					c0.2-0.6,0.3-1.2,0.3-1.9s-0.1-1.3-0.3-1.9c-0.2-0.6-0.5-1.1-0.9-1.5c-0.4-0.4-0.8-0.7-1.4-1C177.8,9.5,177.2,9.4,176.5,9.4z">
     </path>
     <path id="Shape_2_" class="st0" d="M40,5.2v3.1h-3.8v8.1c0,1.4,0.7,1.7,1.9,1.7c0.7,0,1.3-0.1,1.5-0.2l0.3-0.1v3.1l-0.2,0
					c-1.1,0.3-1.9,0.4-3.2,0.4c-0.9,0-3.8-0.3-3.8-4.2V8.3h-2.2V8.1c0-0.1,0-1.2,0-2.2V5.2h2.2v-4L36.2,0v5.2L40,5.2L40,5.2z
					 M63.3,0.1l-4.2,20.8h-3.5L51.9,6.4l-3.7,14.5h-3.5L40.4,0.1H44l2.8,14.1l3.5-14.1h3.4C54,1.4,57.2,14,57.3,14.2
					c0-0.2,2.5-13.6,2.6-14.1H63.3z M66.9,11.4C67,9.9,68,8,70.2,8c2.4,0,3.1,2.1,3.2,3.4H66.9z M70.4,4.9c-2.6,0-7.1,1.7-7.1,8.2
					c0,7.7,6.1,8.1,7.4,8.1c2.6,0,3.8-0.5,4.9-1.1l0.1-0.1v-3.3L75.3,17c-0.8,0.5-2.4,1.1-4.2,1.1c-3.6,0-4.2-2.6-4.2-3.7h10l0-0.2
					c0.3-2.2,0-5.2-1.8-7.3C74,5.6,72.4,4.9,70.4,4.9 M89.8,16.5c0,2.4-2,4.7-5.9,4.7c-1.7,0-3.6-0.4-5-1.1l-0.1-0.1v-3.4l0.3,0.2
					c1.1,0.6,2.9,1.3,4.7,1.3c1.6,0,2.5-0.6,2.5-1.6c0-0.9-0.6-1.2-1.9-1.8l-0.5-0.2c-0.7-0.3-1.2-0.5-2.2-1c-0.9-0.4-3-1.4-3-4.2
					c0-1.5,1.2-4.4,5.6-4.4c1.8,0,3.6,0.5,4.4,0.8l0.1,0.1v3.3L88.3,9c-1.4-0.7-2.7-1-4-1c-0.5,0-2.2,0.1-2.2,1.3
					c0,0.9,1.1,1.4,1.9,1.7l0.2,0.1c0.6,0.3,1.1,0.5,1.5,0.7l0.4,0.2C88.8,13.1,89.8,14.3,89.8,16.5 M11.3,0.1h3.4v20.8h-3.3
					l-9-14.5v14.5H-1V0.1h3.4l9,14.6V0.1L11.3,0.1z M95.8,8.3v8.1c0,1.4,0.7,1.7,1.9,1.7c0.7,0,1.3-0.1,1.5-0.2l0.3-0.1v3.1l-0.2,0
					c-1,0.3-1.9,0.4-3.2,0.4c-0.9,0-3.8-0.3-3.8-4.2V8.3h-2.2V8.1c0-0.1,0-1.2,0-2.2V5.2h2.2v-4L95.8,0v5.2h3.8v3.1L95.8,8.3
					L95.8,8.3z M26.1,16.3c-0.4,0.5-1.6,1.8-3.6,1.8c-1.5,0-2.4-0.9-2.4-2.2s1.1-2.1,3-2.1h3.1V16.3L26.1,16.3z M23.4,4.9
					c-1.8,0-3.5,0.3-4.7,0.8l-0.1,0.1v3.2l0.3-0.2c0.8-0.4,2.8-0.8,4-0.8c3,0,3.2,1.2,3.2,2.7h-3.3c-4.3,0-6.3,2.7-6.3,5.2
					c0,3.5,2.8,5.3,5.5,5.3c1.9,0,3.1-0.7,4-1.6v1.2h3.4V10.3C29.5,5.4,25.3,4.9,23.4,4.9">
     </path>
    </g>
    <g id="Group_1_">
     <path id="Path_3_" class="st0" d="M60.9,31c0,28.8-2.2,31-30.9,31S-1,59.8-1,31S1.2,0,29.9,0S60.9,2.2,60.9,31z">
     </path>
     <g id="Path_4_" transform="translate(9.432288, 11.174419)">
      <polygon class="st1" points="29.8,26.7 17.5,26.7 23.6,37.4 36,37.4 36,37.4 36,37.4 					">
      </polygon>
      <polygon class="st1" points="26.7,0 26.7,0 14.4,0 8.2,10.7 20.6,10.7 20.6,10.7 					">
      </polygon>
      <polygon class="st1" points="11.3,26.7 11.3,26.7 17.5,16 5.2,16 -1,26.7 -1,26.7 -1,26.7 					">
      </polygon>
     </g>
     <g id="Path_5_" transform="translate(9.432288, 11.174419)">
      <polygon class="st2" points="36,16 42.1,26.7 36,37.4 29.8,26.7 					">
      </polygon>
      <polygon class="st2" points="20.6,10.7 26.7,21.4 32.9,10.7 26.7,0 					">
      </polygon>
      <polygon class="st2" points="17.5,37.4 17.5,37.4 5.2,37.4 -1,26.7 -1,26.7 11.3,26.7 					">
      </polygon>
     </g>
     <linearGradient id="Path_9_" gradientUnits="userSpaceOnUse" x1="-66.0687" y1="215.851" x2="-65.5684" y2="215.6837" gradientTransform="matrix(18.4702 0 0 -10.6784 1251.8311 2336.5996)">
      <stop offset="0" style="stop-color:#BF5CFF;stop-opacity:0">
      </stop>
      <stop offset="9.999999e-02" style="stop-color:#BF5CFF;stop-opacity:0.12">
      </stop>
      <stop offset="0.35" style="stop-color:#BF5CFF;stop-opacity:0.4">
      </stop>
      <stop offset="0.57" style="stop-color:#BF5CFF;stop-opacity:0.61">
      </stop>
      <stop offset="0.76" style="stop-color:#BF5CFF;stop-opacity:0.77">
      </stop>
      <stop offset="0.91" style="stop-color:#BF5CFF;stop-opacity:0.86">
      </stop>
      <stop offset="1" style="stop-color:#BF5CFF;stop-opacity:0.9">
      </stop>
     </linearGradient>
     <polygon id="Path_6_" class="st3" points="39.2,27.2 36.1,32.5 30,32.5 30,32.5 26.9,37.9 39.2,37.9 45.4,27.2 				">
     </polygon>
     <linearGradient id="Path_10_" gradientUnits="userSpaceOnUse" x1="-65.6073" y1="215.928" x2="-65.9561" y2="215.6871" gradientTransform="matrix(18.4702 0 0 -10.6885 1242.5933 2333.5874)">
      <stop offset="0" style="stop-color:#BF5CFF;stop-opacity:0">
      </stop>
      <stop offset="9.999999e-02" style="stop-color:#BF5CFF;stop-opacity:0.12">
      </stop>
      <stop offset="0.35" style="stop-color:#BF5CFF;stop-opacity:0.4">
      </stop>
      <stop offset="0.57" style="stop-color:#BF5CFF;stop-opacity:0.61">
      </stop>
      <stop offset="0.76" style="stop-color:#BF5CFF;stop-opacity:0.77">
      </stop>
      <stop offset="0.91" style="stop-color:#BF5CFF;stop-opacity:0.86">
      </stop>
      <stop offset="1" style="stop-color:#BF5CFF;stop-opacity:0.9">
      </stop>
     </linearGradient>
     <polygon id="Path_7_" class="st4" points="20.8,27.2 26.9,27.2 30,32.5 30,32.5 36.1,32.5 30,21.9 17.7,21.9 				">
     </polygon>
     <linearGradient id="Path_11_" gradientUnits="userSpaceOnUse" x1="-62.1879" y1="223.8592" x2="-61.9754" y2="223.4459" gradientTransform="matrix(9.238 0 0 -21.3713 599.4102 4817.3364)">
      <stop offset="0" style="stop-color:#BF5CFF;stop-opacity:0">
      </stop>
      <stop offset="9.999999e-02" style="stop-color:#BF5CFF;stop-opacity:0.12">
      </stop>
      <stop offset="0.35" style="stop-color:#BF5CFF;stop-opacity:0.4">
      </stop>
      <stop offset="0.57" style="stop-color:#BF5CFF;stop-opacity:0.61">
      </stop>
      <stop offset="0.76" style="stop-color:#BF5CFF;stop-opacity:0.77">
      </stop>
      <stop offset="0.91" style="stop-color:#BF5CFF;stop-opacity:0.86">
      </stop>
      <stop offset="1" style="stop-color:#BF5CFF;stop-opacity:0.9">
      </stop>
     </linearGradient>
     <polygon id="Path_8_" class="st5" points="30,43.2 26.9,37.9 30,32.5 30,32.5 26.9,27.2 20.8,37.9 26.9,48.6 				">
     </polygon>
    </g>
   </g>
  </g>
 </g>
</svg>